PathFileType	4	(X/Y/Z)	0_coords_data.trc
DataRate	CameraRate	NumFrames	NumMarkers	Units	OrigDataRate	OrigDataStartFrame	OrigNumFrames
30.0	30.0	6	21	m	30.0	50	59
Frame#	Time	THUMB_TIP	THUMB_IP	THUMB_MCP	THUMB_CMC	INDEX_TIP	INDEX_DIP	INDEX_PIP	INDEX_MCP	MIDDLE_TIP	MIDDLE_DIP	MIDDLE_PIP	MIDDLE_MCP	RING_TIP	RING_DIP	RING_PIP	RING_MCP	PINKY_TIP	PINKY_DIP	PINKY_PIP	PINKY_MCP	WRIST
X1	Y1	Z1	X2	Y2	Z2	X3	Y3	Z3	X4	Y4	Z4	X5	Y5	Z5	X6	Y6	Z6	X7	Y7	Z7	X8	Y8	Z8	X9	Y9	Z9	X10	Y10	Z10	X11	Y11	Z11	X12	Y12	Z12	X13	Y13	Z13	X14	Y14	Z14	X15	Y15	Z15	X16	Y16	Z16	X17	Y17	Z17	X18	Y18	Z18	X19	Y19	Z19	X20	Y20	Z20	X21	Y21	Z21
48	1.6333333333333262	0.5060332496998218	-0.004532000716581774	-0.16300104711285374	0.4975122819916047	-0.01529524882557165	-0.14457428398256283	0.4793429707066593	-0.01211538341586027	-0.11950269481460463	0.4650139026678658	-0.027484924481512296	-0.08015367936858792	0.5747911755751292	-0.05063915857799073	-0.16955402044870066	0.5630935353301578	-0.04288587305047953	-0.15810623567486282	0.5468665504861238	-0.032833653913218575	-0.14174629416249862	0.521209766555719	-0.015865910360445823	-0.11229359970043173	0.589097973316341	-0.07704573287560823	-0.15239289667927236	0.5768140713091078	-0.06839282015215165	-0.14228187037741086	0.5583156338846951	-0.05399048899190151	-0.12496741918756421	0.5287751378584439	-0.034377951568207776	-0.09778552463756557	0.5855037464463508	-0.09610787868153836	-0.12856581114857102	0.5737145487873047	-0.08647379298169511	-0.11891183728885812	0.5582410048650925	-0.07223027547989658	-0.10557498508665775	0.527005977222582	-0.05380884949534881	-0.08769357163952113	0.5650519751818636	-0.11650230218797997	-0.10217503021951008	0.553910510466841	-0.10552757360047182	-0.09521635962560804	0.5412270468848664	-0.09118759017567835	-0.08659622935157069	0.5162754767690917	-0.0680486415558661	-0.07464249953501262	0.4622830810018609	-0.023011742144276925	-0.051989820119430985
49	1.6666666666666594	0.5107587532274529	-0.0014602884216052825	-0.16035675589892256	0.5008903127231723	-0.012593963709038092	-0.1428451838219364	0.48234789747541573	-0.009332672567229583	-0.11805884046782056	0.4657929177397826	-0.02622840596037712	-0.08023878178118637	0.5767241339847424	-0.052078896368073946	-0.1678510044841347	0.5651109384279067	-0.04433291512083104	-0.15631265696483826	0.5489997279870569	-0.03424338016045558	-0.13986151671821662	0.5235667869582172	-0.017519796415677025	-0.11007690069996073	0.5873904853376274	-0.08070364985878142	-0.15275536389332417	0.5754365853511417	-0.07181855993443687	-0.14245199298136474	0.5574973587612957	-0.057227866147699924	-0.12471205627967846	0.5288726786621004	-0.03723629375814186	-0.09683531608983925	0.5810906893576653	-0.10081634084491176	-0.13095793681930384	0.5698069002962826	-0.09094746146507793	-0.12094388048810056	0.5551031756991459	-0.07650234977473092	-0.10696821555848235	0.5252020250522839	-0.056683134542216296	-0.08831772678309296	0.5580308464222994	-0.1210442203567369	-0.10708127212126484	0.5477808677930046	-0.1096625580470203	-0.09943956412065547	0.5361563683866984	-0.0949594362547681	-0.08997905450885402	0.5129760376522718	-0.070607107102167	-0.07692073214777051	0.4622830810018609	-0.023011742144276925	-0.051989820119430985
51	1.7000000000000006	0.5160837261499066	0.0018205640651339783	-0.15688173726335242	0.5047607526278315	-0.009663677560112216	-0.14051401094259086	0.48572019097452035	-0.006358831219455796	-0.11611411334872557	0.46672973954846697	-0.02484213508630373	-0.08023068774858988	0.5789201195993108	-0.053641003163052314	-0.16568696874676414	0.5673630427181132	-0.04591276224717289	-0.15408057971708683	0.5513303036987347	-0.035780443327799616	-0.13757914869269955	0.5260466483392934	-0.0193683869035004	-0.10749564375077808	0.5857446686481771	-0.08427880266253851	-0.15288123214143318	0.5740819158269714	-0.07520226029916954	-0.14241239384115223	0.5566197083504036	-0.060516447230617776	-0.12427933688539178	0.5289212052755857	-0.04019770153273228	-0.0957120580216469	0.5765543599322114	-0.1052611635418097	-0.1332103639970249	0.5657358786413369	-0.09521810694425437	-0.12286157292089916	0.5517496947151178	-0.0806593270462872	-0.10828046987399215	0.5232472344205958	-0.05949936714764392	-0.08892622774863335	0.550619267628684	-0.12495656755928719	-0.1120644208380378	0.5412898352018627	-0.11327716999913895	-0.10372455493831367	0.5307504360992512	-0.09833652490437939	-0.09340417656790939	0.5094146110022987	-0.0729266851844822	-0.07926182655663494	0.4622830810018608	-0.023011742144276925	-0.051989820119430985
52	1.733333333333334	0.5216734596724516	0.004773748467721939	-0.15280092882635604	0.5088973564826094	-0.006947394189713796	-0.13772160516491344	0.489308700385938	-0.003602687536668814	-0.11376503008141242	0.4677842230010665	-0.02343467658578402	-0.08010081935750085	0.5810336826778607	-0.05528301434845462	-0.16335132054993196	0.5695296123545884	-0.04757813352761864	-0.15167693930149234	0.5535613969160478	-0.03740959756407514	-0.1351352705505326	0.5283764584199074	-0.02131514197207962	-0.10479843706147329	0.5840932568707593	-0.08752807372432725	-0.15296306909922747	0.5727095678310768	-0.07829674301079126	-0.14232379482392377	0.5556916340972367	-0.06357298797959987	-0.12380325165661654	0.5288734412301219	-0.04302795613534438	-0.09456570526741404	0.5720462638596268	-0.10909637603486588	-0.1354615059037121	0.5616772276674904	-0.098942575804288	-0.12476648700126552	0.5483725098933182	-0.08436191506010593	-0.10958199503700505	0.5212674618788012	-0.06202949210018671	-0.08954951913236414	0.5432972266196825	-0.12786592344542613	-0.11706887357593038	0.5348679257922243	-0.11603061486589716	-0.10802053901162845	0.5253837981719269	-0.10101256316154295	-0.09682583199057349	0.505898508251283	-0.07478911674179578	-0.08154388886873509	0.4622830810018608	-0.023011742144276925	-0.051989820119430985
53	1.7666666666666675	0.5273629244814666	0.007230092301428681	-0.1482174073116707	0.5131842659620631	-0.004591400978175342	-0.13453464665343995	0.49301807764632544	-0.0012029199080938469	-0.11106843594843052	0.46893811967293353	-0.02205078011481354	-0.07983684378919614	0.5829805092499951	-0.056997591361926836	-0.1609354623090245	0.5715320545177918	-0.04931643660501284	-0.14919098506033318	0.5556169377159489	-0.03911661081997542	-0.13261743854371255	0.5304743607228644	-0.02332316768848508	-0.10208787794747737	0.5824906734101847	-0.09037178524310518	-0.15303398291879133	0.5713686008439449	-0.08102812721652353	-0.1422175344945813	0.554753791062185	-0.06632313988921257	-0.12331988930742727	0.5287332122729931	-0.04566128567070038	-0.09345075505937112	0.5677292909638202	-0.11221343455283006	-0.13771452306808774	0.5577789197963547	-0.10202210842859116	-0.12666341518430163	0.5450999205046183	-0.08751619198959848	-0.1108836387528972	0.5193285412728159	-0.0642178052600284	-0.09020171373876906	0.5363640483597815	-0.1297013237144703	-0.12203186028682295	0.5287731718891032	-0.1178610346339678	-0.11227552137834729	0.5202746332896693	-0.10293249776014124	-0.10020383353112672	0.5025701175096692	-0.07617124965554811	-0.08373358241342532	0.4622830810018609	-0.023011742144276925	-0.051989820119430985
54	1.8000000000000007	0.5330254152845537	0.009053263623438057	-0.1432635211268899	0.5175300490311902	-0.002718406863702061	-0.13104380760257528	0.49677534025706827	0.000725488562204446	-0.10810472200622234	0.4701775615674091	-0.020731455318241943	-0.0794333472905363	0.5847019127032186	-0.05878352279540544	-0.15853402469886874	0.5733174248590968	-0.051121143757370424	-0.1467153367850383	0.5574465566555673	-0.04089334214284046	-0.1301166184730716	0.532283538551781	-0.025361079128396025	-0.09947012732712401	0.5810019504300652	-0.09274464583382214	-0.15312750198065672	0.5701189257811493	-0.08333657276059458	-0.14212532330823485	0.5538579155889186	-0.0687064645940173	-0.12286528611817671	0.5285118432287201	-0.04804439198535526	-0.09242184195648634	0.5637679372398509	-0.11452378827754284	-0.13998511971458066	0.5541903508654176	-0.10437732832021562	-0.12856937665621476	0.5420628479448284	-0.09004717536081752	-0.11220629723724979	0.517494205324417	-0.06602076313133487	-0.09090291372266524	0.5301060598573694	-0.13043538570735247	-0.1269260776519296	0.5232512639544975	-0.11874565113552726	-0.11646845465383648	0.5156300522516983	-0.10407632937175293	-0.1035247245047653	0.4995577285270314	-0.07707403288855341	-0.08582049208076842	0.462283081001861	-0.023011742144276925	-0.051989820119430985
